<svg width="37" height="35" viewBox="0 0 37 35" fill="none" xmlns="http://www.w3.org/2000/svg">
<path d="M29.4708 12.7935C30.8894 12.7928 32.2781 13.1988 33.4701 13.9626C34.662 14.7265 35.6065 15.8157 36.19 17.0995C36.7735 18.3834 36.9713 19.8071 36.7596 21.1998C36.5479 22.5926 35.9357 23.895 34.9965 24.9506V33.3626C34.997 33.5974 34.9367 33.8284 34.8215 34.0335C34.7063 34.2385 34.54 34.4108 34.3385 34.5338C34.137 34.6567 33.9071 34.7263 33.6708 34.7357C33.4344 34.7452 33.1996 34.6943 32.9888 34.5878L32.8231 34.4872L29.4708 32.1611L26.1185 34.4872C25.9249 34.6214 25.6998 34.7041 25.4649 34.7274C25.2299 34.7507 24.9929 34.7139 24.7764 34.6203C24.5599 34.5268 24.3711 34.3797 24.2281 34.1931C24.0852 34.0066 23.9928 33.7867 23.9597 33.5546L23.9468 33.3626V24.947C23.0089 23.8913 22.3978 22.5894 22.1866 21.1975C21.9755 19.8055 22.1734 18.3827 22.7566 17.0996C23.3397 15.8166 24.2834 14.7278 25.4744 13.964C26.6653 13.2002 28.0529 12.7938 29.4708 12.7935ZM32.2336 26.8927C31.3558 27.2451 30.4176 27.4258 29.4708 27.4248C28.5239 27.4258 27.5857 27.2451 26.7079 26.8927V30.7311L28.6806 29.3651C28.8825 29.2246 29.1187 29.1403 29.3645 29.121C29.6103 29.1017 29.8569 29.1481 30.0786 29.2554L30.2628 29.3651L32.2336 30.7311V26.8927ZM31.7732 6.19661e-09C33.063 -6.35273e-05 34.3043 0.488428 35.2439 1.36583C36.1834 2.24324 36.7504 3.44346 36.8292 4.72167L36.8384 5.02889L36.8403 14.6222C36.0933 13.6349 35.1537 12.8071 34.0774 12.1882L34.0756 5.02889C34.0758 4.46299 33.8646 3.91711 33.4829 3.49688C33.1011 3.07665 32.5759 2.81195 32.0089 2.75401L31.7732 2.74303H5.06529C4.49529 2.74277 3.94546 2.95244 3.52219 3.33146C3.09892 3.71047 2.8323 4.23189 2.77393 4.79482L2.76288 5.02889V22.4014C2.76288 23.5846 3.66911 24.5593 4.82952 24.6745L5.06529 24.6873L21.4989 24.6891L21.7255 25.0603L21.9723 25.4188L22.1031 25.5907L22.1012 27.4303H5.06529C3.77511 27.4304 2.53355 26.9416 1.59396 26.0638C0.654362 25.186 0.0875585 23.9854 0.00920983 22.7068L6.24145e-09 22.4014V5.02889C-6.3987e-05 3.74829 0.491963 2.5159 1.37572 1.5831C2.25947 0.650304 3.46838 0.087377 4.75584 0.00914366L5.06529 6.19661e-09H31.7732ZM29.4708 15.5365C28.2492 15.5365 27.0778 16.0183 26.214 16.8758C25.3503 17.7334 24.865 18.8964 24.865 20.1092C24.865 21.3219 25.3503 22.485 26.214 23.3425C27.0778 24.2001 28.2492 24.6818 29.4708 24.6818C30.6923 24.6818 31.8638 24.2001 32.7275 23.3425C33.5912 22.485 34.0765 21.3219 34.0765 20.1092C34.0765 18.8964 33.5912 17.7334 32.7275 16.8758C31.8638 16.0183 30.6923 15.5365 29.4708 15.5365ZM17.0378 17.3652C17.3878 17.3653 17.7247 17.4973 17.9805 17.7346C18.2362 17.9718 18.3917 18.2966 18.4156 18.6433C18.4394 18.9899 18.3299 19.3327 18.109 19.6023C17.8881 19.8718 17.5724 20.0481 17.2257 20.0955L17.0378 20.1083H8.74913C8.39912 20.1082 8.0622 19.9761 7.80645 19.7389C7.5507 19.5017 7.39518 19.1769 7.37133 18.8302C7.34747 18.4835 7.45705 18.1408 7.67793 17.8712C7.89881 17.6017 8.21451 17.4254 8.56125 17.378L8.74913 17.3652H17.0378ZM28.0893 7.30744C28.4393 7.30755 28.7762 7.43955 29.032 7.67678C29.2877 7.91402 29.4433 8.23879 29.4671 8.58547C29.491 8.93216 29.3814 9.27491 29.1605 9.54447C28.9396 9.81403 28.6239 9.99031 28.2772 10.0377L28.0893 10.0505H8.74913C8.39912 10.0504 8.0622 9.91836 7.80645 9.68113C7.5507 9.44389 7.39518 9.11912 7.37133 8.77244C7.34747 8.42575 7.45705 8.083 7.67793 7.81344C7.89881 7.54388 8.21451 7.36761 8.56125 7.32024L8.74913 7.30744H28.0893Z" fill="#247BA0"/>
</svg>
