<svg width="34" height="35" viewBox="0 0 34 35" fill="none" xmlns="http://www.w3.org/2000/svg">
<path d="M16.65 0C7.45 0 0 7.66316 0 17.1053C0 26.5474 7.45 34.2105 16.65 34.2105C25.8667 34.2105 33.3333 26.5474 33.3333 17.1053C33.3333 7.66316 25.8667 0 16.65 0ZM16.6667 30.7895C9.3 30.7895 3.33333 24.6658 3.33333 17.1053C3.33333 9.54474 9.3 3.42105 16.6667 3.42105C24.0333 3.42105 30 9.54474 30 17.1053C30 24.6658 24.0333 30.7895 16.6667 30.7895Z" fill="#247BA0"/>
<path d="M17.5 8.55249H15V18.8156L23.75 24.2038L25 22.0999L17.5 17.5328V8.55249Z" fill="#247BA0"/>
</svg>
